<mxfile host="app.diagrams.net" modified="2024-03-18T15:59:33.399Z" agent="Mozilla/5.0 (Macintosh; Intel Mac OS X 10_15_7) AppleWebKit/605.1.15 (KHTML, like Gecko) Version/16.6 Safari/605.1.15" etag="BkljruHn_QeGfHHwiEHw" version="24.0.7" type="device">
  <diagram name="페이지-1" id="mEju_CCPiQIIO7ooAdxl">
    <mxGraphModel dx="1167" dy="814" grid="1" gridSize="10" guides="1" tooltips="1" connect="1" arrows="1" fold="1" page="1" pageScale="1" pageWidth="827" pageHeight="1169" math="0" shadow="0">
      <root>
        <mxCell id="0" />
        <mxCell id="1" parent="0" />
        <mxCell id="fhEyWGHZXobxeUYgGWvz-8" style="edgeStyle=orthogonalEdgeStyle;rounded=0;orthogonalLoop=1;jettySize=auto;html=1;exitX=1;exitY=0.5;exitDx=0;exitDy=0;entryX=0;entryY=0.5;entryDx=0;entryDy=0;" edge="1" parent="1" source="fhEyWGHZXobxeUYgGWvz-1" target="fhEyWGHZXobxeUYgGWvz-2">
          <mxGeometry relative="1" as="geometry" />
        </mxCell>
        <mxCell id="fhEyWGHZXobxeUYgGWvz-1" value="지표 출처" style="rounded=0;whiteSpace=wrap;html=1;" vertex="1" parent="1">
          <mxGeometry x="80" y="360" width="120" height="60" as="geometry" />
        </mxCell>
        <mxCell id="fhEyWGHZXobxeUYgGWvz-2" value="지표 수집기" style="rounded=0;whiteSpace=wrap;html=1;" vertex="1" parent="1">
          <mxGeometry x="240" y="360" width="120" height="60" as="geometry" />
        </mxCell>
        <mxCell id="fhEyWGHZXobxeUYgGWvz-3" value="질의 시스템" style="rounded=0;whiteSpace=wrap;html=1;" vertex="1" parent="1">
          <mxGeometry x="560" y="360" width="120" height="60" as="geometry" />
        </mxCell>
        <mxCell id="fhEyWGHZXobxeUYgGWvz-4" value="시계열 DB" style="shape=cylinder3;whiteSpace=wrap;html=1;boundedLbl=1;backgroundOutline=1;size=15;" vertex="1" parent="1">
          <mxGeometry x="400" y="340" width="120" height="80" as="geometry" />
        </mxCell>
        <mxCell id="fhEyWGHZXobxeUYgGWvz-5" value="&lt;div&gt;경보 시스템&lt;/div&gt;" style="rounded=0;whiteSpace=wrap;html=1;" vertex="1" parent="1">
          <mxGeometry x="560" y="220" width="120" height="60" as="geometry" />
        </mxCell>
        <mxCell id="fhEyWGHZXobxeUYgGWvz-6" value="&lt;div&gt;시각화 시스템&lt;/div&gt;" style="rounded=0;whiteSpace=wrap;html=1;" vertex="1" parent="1">
          <mxGeometry x="560" y="510" width="120" height="60" as="geometry" />
        </mxCell>
        <mxCell id="fhEyWGHZXobxeUYgGWvz-10" style="edgeStyle=orthogonalEdgeStyle;rounded=0;orthogonalLoop=1;jettySize=auto;html=1;exitX=1;exitY=0;exitDx=0;exitDy=52.5;entryX=0;entryY=0.5;entryDx=0;entryDy=0;exitPerimeter=0;" edge="1" parent="1" source="fhEyWGHZXobxeUYgGWvz-4" target="fhEyWGHZXobxeUYgGWvz-3">
          <mxGeometry relative="1" as="geometry">
            <mxPoint x="373" y="450" as="sourcePoint" />
            <mxPoint x="413" y="440" as="targetPoint" />
            <Array as="points">
              <mxPoint x="520" y="390" />
            </Array>
          </mxGeometry>
        </mxCell>
        <mxCell id="fhEyWGHZXobxeUYgGWvz-15" style="edgeStyle=orthogonalEdgeStyle;rounded=0;orthogonalLoop=1;jettySize=auto;html=1;exitX=1;exitY=0.5;exitDx=0;exitDy=0;curved=0;" edge="1" parent="1" source="fhEyWGHZXobxeUYgGWvz-2">
          <mxGeometry relative="1" as="geometry">
            <mxPoint x="210" y="400" as="sourcePoint" />
            <mxPoint x="400" y="390" as="targetPoint" />
          </mxGeometry>
        </mxCell>
        <mxCell id="fhEyWGHZXobxeUYgGWvz-16" style="edgeStyle=orthogonalEdgeStyle;rounded=0;orthogonalLoop=1;jettySize=auto;html=1;exitX=0.5;exitY=1;exitDx=0;exitDy=0;entryX=0.5;entryY=0;entryDx=0;entryDy=0;" edge="1" parent="1" source="fhEyWGHZXobxeUYgGWvz-5" target="fhEyWGHZXobxeUYgGWvz-3">
          <mxGeometry relative="1" as="geometry">
            <mxPoint x="530" y="403" as="sourcePoint" />
            <mxPoint x="570" y="400" as="targetPoint" />
            <Array as="points">
              <mxPoint x="620" y="340" />
              <mxPoint x="620" y="340" />
            </Array>
          </mxGeometry>
        </mxCell>
        <mxCell id="fhEyWGHZXobxeUYgGWvz-17" style="edgeStyle=orthogonalEdgeStyle;rounded=0;orthogonalLoop=1;jettySize=auto;html=1;exitX=0.5;exitY=0;exitDx=0;exitDy=0;entryX=0.5;entryY=1;entryDx=0;entryDy=0;" edge="1" parent="1" source="fhEyWGHZXobxeUYgGWvz-6" target="fhEyWGHZXobxeUYgGWvz-3">
          <mxGeometry relative="1" as="geometry">
            <mxPoint x="630" y="290" as="sourcePoint" />
            <mxPoint x="630" y="370" as="targetPoint" />
            <Array as="points">
              <mxPoint x="620" y="470" />
              <mxPoint x="620" y="470" />
            </Array>
          </mxGeometry>
        </mxCell>
        <mxCell id="fhEyWGHZXobxeUYgGWvz-18" value="&lt;div&gt;이메일&lt;/div&gt;" style="rounded=0;whiteSpace=wrap;html=1;" vertex="1" parent="1">
          <mxGeometry x="760" y="100" width="120" height="60" as="geometry" />
        </mxCell>
        <mxCell id="fhEyWGHZXobxeUYgGWvz-19" value="&lt;div&gt;SMS&lt;/div&gt;" style="rounded=0;whiteSpace=wrap;html=1;" vertex="1" parent="1">
          <mxGeometry x="760" y="180" width="120" height="60" as="geometry" />
        </mxCell>
        <mxCell id="fhEyWGHZXobxeUYgGWvz-20" value="&lt;div&gt;PageDuty&lt;/div&gt;" style="rounded=0;whiteSpace=wrap;html=1;" vertex="1" parent="1">
          <mxGeometry x="760" y="260" width="120" height="60" as="geometry" />
        </mxCell>
        <mxCell id="fhEyWGHZXobxeUYgGWvz-21" value="&lt;div&gt;WebHook&lt;/div&gt;" style="rounded=0;whiteSpace=wrap;html=1;" vertex="1" parent="1">
          <mxGeometry x="760" y="340" width="120" height="60" as="geometry" />
        </mxCell>
        <mxCell id="fhEyWGHZXobxeUYgGWvz-22" style="edgeStyle=orthogonalEdgeStyle;rounded=0;orthogonalLoop=1;jettySize=auto;html=1;exitX=1;exitY=0;exitDx=0;exitDy=52.5;entryX=0;entryY=0.5;entryDx=0;entryDy=0;exitPerimeter=0;curved=1;" edge="1" parent="1" target="fhEyWGHZXobxeUYgGWvz-18">
          <mxGeometry relative="1" as="geometry">
            <mxPoint x="680" y="223" as="sourcePoint" />
            <mxPoint x="720" y="220" as="targetPoint" />
            <Array as="points">
              <mxPoint x="680" y="130" />
            </Array>
          </mxGeometry>
        </mxCell>
        <mxCell id="fhEyWGHZXobxeUYgGWvz-23" style="edgeStyle=orthogonalEdgeStyle;rounded=0;orthogonalLoop=1;jettySize=auto;html=1;exitX=1;exitY=0;exitDx=0;exitDy=52.5;entryX=0;entryY=0.5;entryDx=0;entryDy=0;exitPerimeter=0;curved=1;" edge="1" parent="1" target="fhEyWGHZXobxeUYgGWvz-21">
          <mxGeometry relative="1" as="geometry">
            <mxPoint x="680" y="283" as="sourcePoint" />
            <mxPoint x="720" y="280" as="targetPoint" />
            <Array as="points">
              <mxPoint x="680" y="370" />
            </Array>
          </mxGeometry>
        </mxCell>
        <mxCell id="fhEyWGHZXobxeUYgGWvz-24" style="edgeStyle=orthogonalEdgeStyle;rounded=0;orthogonalLoop=1;jettySize=auto;html=1;exitX=1;exitY=0;exitDx=0;exitDy=52.5;entryX=0;entryY=0.5;entryDx=0;entryDy=0;exitPerimeter=0;curved=1;" edge="1" parent="1" target="fhEyWGHZXobxeUYgGWvz-19">
          <mxGeometry relative="1" as="geometry">
            <mxPoint x="680" y="243" as="sourcePoint" />
            <mxPoint x="720" y="240" as="targetPoint" />
            <Array as="points">
              <mxPoint x="680" y="210" />
            </Array>
          </mxGeometry>
        </mxCell>
        <mxCell id="fhEyWGHZXobxeUYgGWvz-25" style="edgeStyle=orthogonalEdgeStyle;rounded=0;orthogonalLoop=1;jettySize=auto;html=1;exitX=1;exitY=0;exitDx=0;exitDy=52.5;entryX=0;entryY=0.5;entryDx=0;entryDy=0;exitPerimeter=0;curved=1;" edge="1" parent="1" target="fhEyWGHZXobxeUYgGWvz-20">
          <mxGeometry relative="1" as="geometry">
            <mxPoint x="680" y="263" as="sourcePoint" />
            <mxPoint x="720" y="260" as="targetPoint" />
            <Array as="points">
              <mxPoint x="680" y="290" />
            </Array>
          </mxGeometry>
        </mxCell>
      </root>
    </mxGraphModel>
  </diagram>
</mxfile>
